<svg enable-background="new 0 0 20 44" height="44" viewBox="0 0 20 44" width="20" xmlns="http://www.w3.org/2000/svg"><path d="m0 0h20v44h-20z" fill="none"/><path d="m5.3447 17.745h3.9844v.9199h-2.7305l.75.2637c-.1816.3632-.3808.6914-.5976.9902h2.2148v5.4316c0 .6973-.3457 1.0605-1.0195 1.0605h-1.0371l-.2344-.8438h-3.8555v-2.6953h4.0137v2.666l.8203.0176c.2461 0 .3691-.1406.3691-.4102v-4.3652h-1.6288v.6035c0 .2051.0938.3223.2988.3223h1.0371v.7852h-1.4356c-.5273 0-.7793-.2344-.7793-.709v-1.002h-1.3828c-.0879.5742-.2695 1.0371-.5332 1.3828-.3281.3926-.8438.709-1.5293.9434l-.4277-.7559c.5332-.1758.9258-.4102 1.1895-.7031.1816-.2227.3047-.5156.3867-.8672h-1.6114v5.6074h-.9375v-6.4688h2.1621c-.1465-.3457-.3105-.6855-.5039-.9902l.6855-.2637h-2.6835v-.9197h3.9902c-.1055-.2461-.2109-.4805-.3105-.6855l1.043-.1758c.1054.2577.1933.5449.2929.8613zm.3633 2.1738c.2578-.3984.4805-.8203.6738-1.2539h-3.1113c.1934.3633.3633.7852.5332 1.2539zm.1934 3.7734h-2.1621v1.0371h2.1621zm10.0254-5.7715h3.7441v.9434h-7.4414v2.1328c-.0293 2.2559-.4043 4.0547-1.1133 5.4141l-.7383-.6562c.5684-1.1426.8613-2.7305.8848-4.7578v-3.0762h3.668c-.1406-.293-.3047-.5625-.4688-.8086l1.0137-.1641c.164.2988.3047.6211.4512.9726zm.2461 1.2598v1.1074h3.2637v.9199h-3.2637v1.3008h2.6836v3.9434h-.9609v-.4512h-4.043v.4512h-.9609v-3.9434h2.3086v-3.3281zm1.7226 5.9063v-1.6699h-4.043v1.6699z" fill="#fff"/></svg>