<svg enable-background="new 0 0 20 44" height="44" viewBox="0 0 20 44" width="20" xmlns="http://www.w3.org/2000/svg"><path d="m0 0h20v44h-20z" fill="none"/><path d="m4.8789 17.3363v.8789h-1.2598v1.0254h1.084v7.0605h-.8261v-.3633h-2.6368v.4336h-.832v-7.1309h1.0781v-1.0254h-1.2363v-.8789h4.6289zm-1.0019 7.7403v-2.4727h-.4102c-.4629 0-.6914-.252-.6914-.75v-1.7695h-.4395v.5742c-.0117 1.1074-.2461 1.9043-.7031 2.4082l-.3926-.334v2.3438zm-2.6368-4.9922v2.4492c.3223-.4277.4863-1.0547.4922-1.875v-.5742zm2.3145 3.3105v.832h-1.9746v-.832zm-.7207-4.1543v-1.0254h-.5567v1.0254zm1.043.8438h-.4864v1.5879c0 .1406.0879.2285.2637.2285h.2227zm5.2851 5.6015c-.1582.3223-.4922.4863-.9785.4863h-1.9512c-.6562 0-.9727-.3867-.9727-1.1484v-4.3066h2.7891v-2.502h-2.9004v-.8789h3.791v4.2715h-2.7597v3.0469c0 .3984.1523.6152.4629.6387h1.3945c.2227 0 .3809-.1465.4395-.4219.041-.2695.0879-.7969.123-1.582l.9141.3105c-.0821 1.0664-.2051 1.7637-.3516 2.0859zm4.2598-8.3613c-.252.8145-.5859 1.582-.9961 2.2969v6.8262h-.9551v-5.4082c-.2871.3633-.5977.7148-.9141 1.0547l-.3223-1.0371c1.0254-1.1895 1.7871-2.5723 2.2793-4.1543zm1.7695.4395c-.0879.4629-.1758.9082-.293 1.3125h1.2363v-2.0449h.9727v2.0449h2.2617v.9551h-2.2617v2.2031h2.6426v.9434h-2.6426v3.2285h-.9727v-3.2285h-2.918v-.9434h2.918v-2.2031h-1.5469c-.2578.6445-.5684 1.2305-.9375 1.7637l-.627-.8086c.5977-.9141 1.0078-2.0273 1.2129-3.3398z" fill="#fff"/></svg>