<svg enable-background="new 0 0 49 44" height="44" viewBox="0 0 49 44" width="49" xmlns="http://www.w3.org/2000/svg"><path d="m0 0h49v44h-49z" fill="none"/><path d="m3.3223 26v-7.6875h-2.8125v-.7676h6.4805v.7676h-2.8126v7.6875zm7.6259 0-3.1523-8.4551h.8965l2.6426 7.3418h.0762l2.6426-7.3418h.8965l-3.1524 8.4551zm9.25-6.2695v-1.2246c-.4688.0703-.9492.123-1.4238.1582l-.3105-.8672c1.582-.123 2.8535-.375 3.8262-.75l.457.8145c-.5156.1816-1.0547.3457-1.6055.4688v1.4004h1.6758v.9199h-1.6758v.4102c.5742.498 1.1602 1.0664 1.752 1.6875l-.5742.8438c-.4629-.6621-.8496-1.1836-1.1777-1.5938v4.3535h-.9434v-4.1484c-.4102.8613-.9434 1.6523-1.5762 2.3672l-.4219-1.0664c.9023-.8203 1.5645-1.7578 1.998-2.8066v-.0469h-1.7109v-.9199h1.7109zm7.0313 6.2988h-.9434v-.75h-2.2266v.873h-.9316v-8.5371h4.1016zm-.9434-1.6758v-5.8301h-2.2266v5.8301zm9.92-4.8457v.9023h-2.2734c-.252.1641-.4863.3164-.709.4629.3574.3926.6445.8203.8496 1.2715.8203-.3281 1.5996-.8203 2.3379-1.4883l.6738.6562c-.6914.6152-1.4766 1.1074-2.3438 1.459.7969.8672 1.8457 1.6055 3.1348 2.2207l-.5098.873c-1.1777-.6387-2.1387-1.3828-2.8828-2.2617.0234.1875.041.3809.041.5859 0 .832-.123 1.4004-.3457 1.7051-.2637.3574-.8613.5449-1.7988.5449h-.3223l-.334-.8496h.5273c.5742-.0117.9316-.0996 1.0781-.2402.1641-.2051.252-.5801.252-1.1602 0-.0996-.0059-.2051-.0059-.293-1.1074.832-2.5664 1.5176-4.3535 2.0742l-.4863-.832c1.998-.5684 3.5566-1.2949 4.6699-2.1738-.0586-.2051-.1406-.4102-.2227-.5977-.9609.7207-2.2441 1.3008-3.832 1.7637l-.4805-.8379c1.6816-.4336 2.9824-.9727 3.9023-1.6348-.0996-.1406-.1934-.2637-.293-.3867-.041.0234-.0762.0293-.1055.0527-.668.3164-1.6055.6562-2.8184 1.0137l-.4922-.8086c.9434-.1934 1.8223-.4629 2.6426-.8027.2461-.0996.4805-.2051.709-.3164h-2.2969v-.9023h6.0882zm-2.4903-1.6933h3.8438v1.9102h-.9727v-1.002h-6.8496v1.002h-.9727v-1.9102h3.9668c-.0996-.2637-.2168-.498-.3398-.7148l1.0078-.1641c.1113.2695.2168.5566.3164.8789zm10.5469-.0293h3.7148v.9082h-7.5879v2.5371c-.0293 2.1562-.3633 3.8672-.9785 5.1562l-.7266-.6445c.4746-1.0898.709-2.5898.7266-4.5117v-3.4453h3.8555c-.1289-.2578-.2754-.4922-.4336-.7148l1.0195-.1641c.1465.2636.2754.5507.4102.8789zm-1.0488 1.4355v.7617c-.3984.6328-.791 1.1777-1.1543 1.6172h1.1953v.5332c-.041.9844-.252 1.8105-.6445 2.5078.1875.1582.3809.2812.5742.3633.668.2754 1.7227.416 3.1582.416.5625 0 1.1484-.0176 1.7637-.0469l-.1758.9375h-1.1484c-1.9043 0-3.2812-.1934-4.0957-.5801-.2168-.1055-.4102-.2285-.5859-.3691-.3809.4102-.8438.7559-1.3945 1.0371l-.4805-.8496c.498-.2461.9082-.5391 1.2188-.8848-.3105-.4277-.5859-.9434-.8203-1.5469l.7559-.2988c.1816.4102.3809.7852.5859 1.0898.2168-.4512.3516-.9551.4102-1.5059h-1.5293v-.6855c.4746-.498.9141-1.0371 1.3008-1.623h-1.4121v-.873zm2.0215 2.1914v-1.1719c-.4277.0352-.8906.0586-1.3652.0586l-.2812-.8496c1.4355 0 2.6426-.1758 3.627-.5039l.457.7852c-.4277.1641-.9316.3047-1.4824.3926v1.2891h1.4355v.8613h-1.4355v1.4473h1.6582v.873h-4.3242v-.873h1.7109v-1.4473h-1.4355v-.8613h1.4354z" fill="#fff"/></svg>