<svg enable-background="new 0 0 56 44" height="44" viewBox="0 0 56 44" width="56" xmlns="http://www.w3.org/2000/svg"><path d="m0 0h56v44h-56z" fill="none"/><path d="m5.6903 23.5707h-3.3633l-.8496 2.4199h-1.1074l3.1172-8.4551h1.043l3.1172 8.4551h-1.1075zm-3.0527-.8965h2.7422l-1.3242-3.7734h-.0938zm11.9736.1582c0 1.9746-1.0488 3.2695-2.6543 3.2695-.9023 0-1.6289-.3926-1.9746-1.0605h-.0937v3.0586h-1.0079v-8.4258h.9609v1.0547h.0938c.4043-.7266 1.1602-1.166 2.0215-1.166 1.6113 0 2.6543 1.2832 2.6543 3.2695zm-1.043 0c0-1.4766-.6914-2.3613-1.8457-2.3613-1.1426 0-1.8633.9082-1.8633 2.3613 0 1.4473.7207 2.3613 1.8574 2.3613 1.1602.0001 1.8516-.8847 1.8516-2.3613zm8.2354 0c0 1.9746-1.0488 3.2695-2.6543 3.2695-.9023 0-1.6289-.3926-1.9746-1.0605h-.0938v3.0586h-1.0078v-8.4258h.9609v1.0547h.0938c.4043-.7266 1.1602-1.166 2.0215-1.166 1.6113 0 2.6543 1.2832 2.6543 3.2695zm-1.043 0c0-1.4766-.6914-2.3613-1.8457-2.3613-1.1426 0-1.8633.9082-1.8633 2.3613 0 1.4473.7207 2.3613 1.8574 2.3613 1.1602.0001 1.8516-.8847 1.8516-2.3613zm2.5635-5.666h1.0078v8.8242h-1.0078zm8.0361 7.1895c-.293 1.0781-1.2773 1.7461-2.6602 1.7461-1.752 0-2.8477-1.2656-2.8477-3.2637 0-1.9863 1.1133-3.2754 2.8477-3.2754 1.7051 0 2.7422 1.2129 2.7422 3.1758v.3867h-4.541v.0469c.0527 1.248.75 2.0391 1.8223 2.0391.8145 0 1.3652-.2988 1.6289-.8555zm-4.4589-2.045h3.4805c-.0234-1.1191-.6914-1.8574-1.6934-1.8574-1.0079 0-1.711.7383-1.7871 1.8574zm12.1269-4.6347c-.334.6152-.6738 1.1133-1.0078 1.5234.0586.1348.1113.2695.1582.4102.2695.8262.4219 1.9805.4512 3.4863 0 1.6406-.1934 2.625-.5566 2.9648-.2402.1816-.5508.2754-.9199.2754-.3047 0-.5566-.0117-.7441-.0234l-.2637-.8789c.2754.041.5391.0762.791.0762s.4219-.0645.5098-.1699c.1816-.252.2812-1.0137.2812-2.2852 0-.2637-.0059-.5215-.0176-.7559-.4277.6094-.9082 1.1484-1.4473 1.5762l-.5273-.791c.7969-.5859 1.4062-1.2715 1.8574-2.0684-.0703-.3867-.1465-.7266-.2402-1.0137-.0234-.0293-.0352-.0645-.0352-.082-.3047.2695-.6621.5508-1.0723.8379l-.4922-.8027c.4102-.2344.8027-.5273 1.166-.8906-.2578-.4395-.5625-.8379-.9199-1.1953l.7383-.5918c.3047.3457.5801.6914.8086 1.0547.2461-.334.4922-.709.7207-1.1191zm5.6309-.3516v2.5723h-3.3633c-.1055.1934-.2051.3809-.3164.5566h3.9082c0 2.7891-.0586 4.5117-.1465 5.1621-.0996.5273-.5273.791-1.3125.791-.1523 0-.416-.0176-.7969-.0352l-.1992-.7617c.2344.0176.4395.041.627.041l-.1641-.4102c-.8145.1523-2.0391.2988-3.6562.4277l-.123-.8086c.6973-.0352 1.3418-.0645 1.9277-.0996v-.7207h-1.5996v-2.0391c-.1113.0703-.2285.1465-.3281.2168l-.4629-.7559c.7559-.4336 1.3359-.9492 1.7227-1.5645h-.9961v-2.5723h5.2792zm-.75 7.9219c.0645-.3984.0996-1.7285.1172-3.9844h-3.6914c-.2695.2695-.5625.5039-.8848.7266h1.5938v-.4688h.8379v.4688h1.5703v2.0508h-.4102c.2637.4336.5098.9258.7148 1.4766.0762-.0704.1231-.1641.1524-.2696zm-2.8653-2.5606h-.8496v.6914h.8496zm-.1172-4.5703h-.7266v1.0137h.7266zm1.4649 0h-.7207v1.0137h.7207zm.3222 4.5703h-.832v.6914h.832zm-.3281 1.5411.5859-.1875h-1.0898v.6504c.2578-.0352.4922-.0703.709-.0879-.0586-.129-.1348-.2579-.2051-.375zm1.4473-6.1114h-.7031v1.0137h.7031zm9.9258 1.3828v.9023h-2.2734c-.252.1641-.4863.3164-.709.4629.3574.3926.6445.8203.8496 1.2715.8203-.3281 1.5996-.8203 2.3379-1.4883l.6738.6562c-.6914.6152-1.4766 1.1074-2.3438 1.459.7969.8672 1.8457 1.6055 3.1348 2.2207l-.5098.873c-1.1777-.6387-2.1387-1.3828-2.8828-2.2617.0234.1875.041.3809.041.5859 0 .832-.123 1.4004-.3457 1.7051-.2637.3574-.8613.5449-1.7988.5449h-.3223l-.334-.8496h.5273c.5742-.0117.9316-.0996 1.0781-.2402.1641-.2051.252-.5801.252-1.1602 0-.0996-.0059-.2051-.0059-.293-1.1074.832-2.5664 1.5176-4.3535 2.0742l-.4863-.832c1.998-.5684 3.5566-1.2949 4.6699-2.1738-.0586-.2051-.1406-.4102-.2227-.5977-.9609.7207-2.2441 1.3008-3.832 1.7637l-.4805-.8379c1.6816-.4336 2.9824-.9727 3.9023-1.6348-.0996-.1406-.1934-.2637-.293-.3867-.041.0234-.0762.0293-.1055.0527-.668.3164-1.6055.6562-2.8184 1.0137l-.4922-.8086c.9434-.1934 1.8223-.4629 2.6426-.8027.2461-.0996.4805-.2051.709-.3164h-2.2969v-.9023h6.0882zm-2.4903-1.6933h3.8438v1.9102h-.9727v-1.002h-6.8496v1.002h-.9727v-1.9102h3.9668c-.0996-.2637-.2168-.498-.3398-.7148l1.0078-.1641c.1114.2695.2168.5566.3164.8789z" fill="#fff"/></svg>