<svg enable-background="new 0 0 41 44" height="44" viewBox="0 0 41 44" width="41" xmlns="http://www.w3.org/2000/svg"><path d="m0 0h41v44h-41z" fill="none"/><path d="m5.6201 16.9906v1.2598h3.9316v.9434h-3.9316v1.3418h2.7305v.8613c-.5391 1.1016-1.3301 2.0508-2.3555 2.8418.457.2461.9609.4805 1.5059.6855.7383.2637 1.5059.498 2.3262.6855l-.5684.8613c-.8906-.2402-1.7285-.5215-2.5312-.8613-.5626-.246-1.084-.5097-1.5645-.8027-1.1367.709-2.5137 1.2715-4.1074 1.6992l-.5684-.8672c1.4941-.334 2.7773-.8145 3.832-1.4004-.5097-.4043-.9609-.8555-1.3418-1.3477-.3574-.4512-.6152-.9316-.7676-1.4414h-.7148v-.9141h3.1289v-1.3418h-3.914v-.9434h3.914v-1.2598h.9961zm1.6231 4.459h-4.0664c.1816.4805.4512.9023.7969 1.2656.3457.3691.7383.709 1.166 1.0078.9023-.6445 1.6113-1.4003 2.1035-2.2734zm6.4863.5508c-.2871.1641-.5625.3281-.8496.4688v2.9121c0 .6152-.3281.9316-.9727.9316h-.9023l-.2051-.9082c.2637.041.5332.0586.7734.0586s.3633-.0996.3633-.3047v-2.25c-.3516.1465-.6973.293-1.0488.4102l-.2344-.9258c.4336-.1289.8613-.2695 1.2832-.4336v-2.1914h-1.1367v-.9375h1.1367v-1.7988h.9434v1.7988h1.0547v.9375h-1.0547v1.7637c.2871-.1582.5625-.3223.8496-.4922zm1.4531-2.1445c-.1934-.4277-.3984-.7969-.6152-1.1016l.7148-.2871c.2227.3457.4102.7148.5801 1.1133l-.6562.2754h1.7871c-.1875-.457-.3809-.8613-.5859-1.2012l.7031-.2812c.2051.3809.3926.7793.5566 1.207l-.6562.2754h1.1191c.2402-.4863.457-1.0664.6504-1.7168l.8555.2227c-.1875.5566-.3926 1.0547-.627 1.4941h.6973v.8438h-3.4336c-.0293.2227-.0645.4512-.0938.6562h3.75v.8613h-3.8848c-.041.2109-.0879.416-.1348.6152h3.4688v.7324c-.2227.5566-.5977 1.0488-1.0957 1.4707.5332.2227 1.1484.3984 1.8223.5098l-.4395.873c-.8438-.1875-1.5762-.457-2.1914-.8203-.5977.3398-1.3125.627-2.1328.8496l-.4395-.8086c.6855-.1465 1.2773-.334 1.7871-.5742-.4277-.3457-.791-.7383-1.0723-1.166-.0234.0352-.0293.0762-.041.1113-.3516.9023-.873 1.6992-1.5645 2.4199l-.5801-.75c.6094-.627 1.0664-1.3242 1.3828-2.0801.1465-.3984.2812-.8613.3808-1.3828h-1.2597v-.8613h1.418l.0762-.6562h-1.166v-.8438h.92zm4.7051-2.0157c-1.3828.3633-3.2168.5625-5.502.5625l-.2871-.8438c2.1328 0 3.9258-.1406 5.3789-.4277zm-1.4766 5.7832h-2.0273c.2988.3867.6562.7148 1.0898.9902.4102-.2988.7149-.6269.9375-.9902zm3.3047 2.8477-.7441-.668c.4102-.8906.6152-2.0332.627-3.4102v-5.0391h3.1875v8.0215c0 .6914-.3164 1.043-.9375 1.043h-.8262l-.2344-.8613c.2871.0293.5449.0527.7852.0527.2168 0 .334-.1875.334-.5449v-2.0566h-1.459c-.0704 1.3887-.3165 2.5488-.7325 3.4629zm2.1914-8.2324h-1.4355v1.5176h1.4355zm-1.4355 3.8847h1.4355v-1.4941h-1.4355zm3.9258 4.336h-.9141v-9.1055h4.3184c0 1.3359-.0645 2.2207-.1875 2.6602-.123.4277-.5156.6445-1.166.6445h-.8613l-.2578-.8203c.1641 0 .3926.0117.6738.0117.2168 0 .3809-.0234.4805-.0527.1055-.0293.1875-.123.252-.2637.0586-.1758.0996-.6094.123-1.2949h-2.4609v2.8887h3.4629v.8203c-.1816 1.0078-.4863 1.8691-.9199 2.5723.416.4043.9141.7559 1.459 1.0898l-.4805.8203c-.5801-.3516-1.0957-.7441-1.5234-1.1602-.4219.4746-.9199.8613-1.4941 1.1719l-.5039-.7617v.7793zm0-.8086c.5332-.2871.9844-.6562 1.3594-1.0898-.5918-.7559-1.002-1.6172-1.2305-2.5723h-.1289zm1.8925-1.8457c.3105-.5332.5449-1.1426.709-1.8164h-1.6406c.2051.6679.5156 1.2715.9316 1.8164zm4.9746-4.541c.3223-.3047.627-.6445.9023-1.0254h-2.7129v-.9023h3.8145v.7617c-.4277.6738-.8965 1.2363-1.4004 1.7109.1406.1289.2871.2637.4102.3984l-.2812.2637h1.4355v.8203c-.2402.6973-.5332 1.3242-.8672 1.8809l-.5859-.5273c.1875-.3223.3926-.7441.6035-1.2598h-.7383v4.0664c0 .627-.2988.9492-.8789.9492h-.9434l-.1875-.8555c.2871.041.5684.0645.832.0645.1934 0 .2988-.1289.2988-.3633v-3.5098c-.3691 1.1953-.873 2.2852-1.5293 3.2637l-.3574-.9082c.5918-.7793 1.0664-1.6816 1.4121-2.707h-1.1953v-.9141h2.0801c-.4219-.4277-.9551-.8789-1.5879-1.3418l.5859-.5742c.3224.2461.6271.4804.8907.709zm6.709 6.0586c-.0996.6738-.6035 1.0195-1.5176 1.0195-.1816 0-.4863-.0176-.9199-.041l-.2051-.8086c.3809.0234.709.0469.9902.0469.457 0 .7207-.2051.8027-.6094.0527-.1816.082-.791.1055-1.8047h-1.3477c-.1172.6035-.2871 1.084-.498 1.459-.4336.7207-1.1367 1.3301-2.1445 1.8574l-.5918-.7617c.8789-.4336 1.5117-.9316 1.8926-1.5059.1641-.2695.2988-.6152.4043-1.0488h-1.5117v-.8906h1.6641c.0293-.2637.0527-.5391.0703-.832h.9082l-.0586.832h2.1035c0 1.664-.0527 2.6953-.1465 3.0879zm-2.414-8.2149c-.0703.2402-.1582.4629-.2403.6797h3.0059v.8848h-.6855c-.252.6621-.5684 1.207-.9551 1.6172.5215.2637 1.125.498 1.8281.7031l-.627.75c-.7617-.2637-1.4004-.5508-1.916-.8789-.498.3281-1.0898.627-1.7988.9023l-.5391-.709c.6328-.2227 1.166-.457 1.5938-.709-.3223-.2754-.5977-.5625-.8203-.8613l.6914-.3867c.2226.2695.498.5098.832.7383.3223-.3223.5918-.709.7852-1.166h-1.8516c-.3223.4805-.709.9082-1.1719 1.3008l-.5391-.7207c.7266-.6152 1.2129-1.3594 1.4766-2.25z" fill="#fff"/></svg>