<svg width="13" height="16" viewBox="0 0 13 16" fill="none" xmlns="http://www.w3.org/2000/svg">
<path d="M3.02 15.23C2.77 15.07 2.51 14.84 2.25 14.52C2.07 14.31 1.85 14.01 1.59 13.62C1.14 12.97 0.769999 12.22 0.489999 11.37C0.179999 10.44 0.0299988 9.55 0.0299988 8.68C0.0299988 7.71 0.239999 6.86 0.649999 6.15C0.969999 5.58 1.4 5.13 1.95 4.8C2.5 4.46 3.08 4.29 3.71 4.28C3.93 4.28 4.16 4.31 4.41 4.37C4.59 4.42 4.81 4.5 5.07 4.6C5.41 4.73 5.6 4.81 5.66 4.83C5.86 4.9 6.03 4.93 6.16 4.93C6.26 4.93 6.4 4.9 6.56 4.85C6.65 4.82 6.82 4.76 7.06 4.66C7.3 4.57 7.49 4.5 7.64 4.44C7.87 4.37 8.09 4.31 8.29 4.28C8.53 4.24 8.77 4.23 9 4.25C9.44 4.28 9.84 4.37 10.2 4.51C10.83 4.76 11.34 5.16 11.72 5.72C11.56 5.82 11.41 5.93 11.27 6.06C10.96 6.34 10.7 6.65 10.51 6.99C10.24 7.47 10.11 8 10.11 8.55C10.12 9.22 10.29 9.81 10.63 10.32C10.87 10.69 11.19 11.01 11.58 11.27C11.77 11.4 11.94 11.49 12.1 11.55C12.02 11.81 11.93 12.04 11.85 12.23C11.63 12.75 11.37 13.22 11.08 13.66C10.81 14.05 10.6 14.34 10.44 14.53C10.19 14.83 9.95 15.05 9.71 15.21C9.43 15.39 9.13 15.48 8.81 15.48C8.59 15.49 8.38 15.46 8.17 15.4C8.05 15.36 7.87 15.3 7.64 15.2C7.41 15.1 7.22 15.03 7.08 14.99C6.85 14.93 6.61 14.9 6.36 14.9C6.11 14.9 5.87 14.93 5.64 14.99C5.48 15.03 5.3 15.1 5.08 15.19C4.82 15.3 4.65 15.37 4.55 15.4C4.35 15.46 4.14 15.5 3.94 15.51C3.62 15.51 3.32 15.42 3.02 15.23ZM7.26 3.81C6.84 4.02 6.44 4.11 6.04 4.08C5.98 3.68 6.04 3.27 6.21 2.82C6.36 2.44 6.56 2.09 6.83 1.78C7.1 1.47 7.43 1.21 7.84 1C8.25 0.790004 8.64 0.680004 9.01 0.660004C9.06 1.08 9.01 1.5 8.86 1.94C8.72 2.34 8.51 2.7 8.24 3.03C7.97 3.36 7.64 3.62 7.26 3.81Z" fill="#1D1D1F"/>
</svg>
