<svg xmlns="http://www.w3.org/2000/svg" viewBox="0 0 40 56">
	<path fill="#6e6e73" d="M28.47,33.74v-.82a3.24,3.24,0,0,1-3-2.25,1.75,1.75,0,0,1-.05-.33.57.57,0,0,1,.59-.59.61.61,0,0,1,.6.51,2,2,0,0,0,1.9,1.53V28.38l-.1,0c-1.84-.43-2.77-1.26-2.77-2.64A2.85,2.85,0,0,1,28.47,23v-.76a.45.45,0,0,1,.48-.48.46.46,0,0,1,.48.48V23a3.07,3.07,0,0,1,2.85,2.17,1.17,1.17,0,0,1,0,.32.56.56,0,0,1-.58.6.63.63,0,0,1-.61-.51,2,2,0,0,0-1.7-1.43V27.4l.19,0c1.91.36,2.87,1.24,2.87,2.72s-1.31,2.63-3.06,2.78v.81a.46.46,0,0,1-.48.48A.46.46,0,0,1,28.47,33.74Zm0-9.57c-1,.16-1.64.75-1.64,1.49s.49,1.16,1.57,1.47h.07Zm1,7.62c1.19-.12,1.83-.74,1.83-1.59s-.44-1.22-1.59-1.53l-.24-.05Z"/>
	<path fill="#6e6e73" d="M20,32.21v-8h-2.8a.65.65,0,1,1,0-1.3h7.2a.65.65,0,0,1,0,1.3H21.54v8c0,.54-.27.88-.8.88S20,32.74,20,32.21Z"/>
	<path fill="#6e6e73" d="M7.51,32.36V23.71a.75.75,0,0,1,.79-.85.87.87,0,0,1,.82.5l5,7.22h.07V23.64a.74.74,0,1,1,1.47,0V32.3a.75.75,0,0,1-.79.84.87.87,0,0,1-.82-.5L9,25.51H9v6.85a.7.7,0,0,1-.75.78A.69.69,0,0,1,7.51,32.36Z"/>
	<path fill="#6e6e73" d="M20,10.7A17.3,17.3,0,1,1,2.7,28,17.32,17.32,0,0,1,20,10.7m0-2.2A19.5,19.5,0,1,0,39.5,28,19.5,19.5,0,0,0,20,8.5Z"/>
</svg>
