<svg width="15" height="44" viewBox="0 0 15 44" fill="none" xmlns="http://www.w3.org/2000/svg">
<g clip-path="url(#clip0_1_35)">
<path d="M13.98 27.343L10.48 23.843C11.3617 22.7632 11.7949 21.3859 11.6899 19.9958C11.585 18.6057 10.95 17.309 9.91622 16.3737C8.88242 15.4385 7.52882 14.9362 6.13518 14.9706C4.74153 15.005 3.41437 15.5735 2.42799 16.5586C1.4416 17.5437 0.871379 18.8702 0.835178 20.2638C0.798978 21.6574 1.29956 23.0116 2.23348 24.0466C3.16739 25.0816 4.46324 25.7183 5.85322 25.825C7.2432 25.9317 8.62105 25.5003 9.70201 24.62L13.202 28.12C13.2531 28.1711 13.3137 28.2116 13.3805 28.2393C13.4472 28.2669 13.5188 28.2811 13.591 28.2811C13.6633 28.2811 13.7348 28.2669 13.8015 28.2393C13.8683 28.2116 13.9289 28.1711 13.98 28.12C14.0311 28.0689 14.0716 28.0083 14.0993 27.9415C14.1269 27.8748 14.1411 27.8032 14.1411 27.731C14.1411 27.6588 14.1269 27.5872 14.0993 27.5205C14.0716 27.4537 14.0311 27.3931 13.98 27.342V27.343ZM1.95901 20.418C1.95921 19.5638 2.21268 18.7289 2.68738 18.0188C3.16208 17.3086 3.83668 16.7552 4.62589 16.4285C5.4151 16.1017 6.28348 16.0163 7.12122 16.1831C7.95895 16.3499 8.72843 16.7613 9.33236 17.3654C9.93628 17.9694 10.3475 18.739 10.5141 19.5768C10.6807 20.4146 10.5951 21.2829 10.2681 22.072C9.94122 22.8612 9.38765 23.5357 8.67741 24.0102C7.96718 24.4847 7.13218 24.738 6.27801 24.738C5.13269 24.7369 4.0346 24.2814 3.22483 23.4715C2.41506 22.6615 1.9598 21.5633 1.95901 20.418V20.418Z" fill="white"/>
</g>
<defs>
<clipPath id="clip0_1_35">
<rect width="15" height="44" fill="white"/>
</clipPath>
</defs>
</svg>
